<svg xmlns="http://www.w3.org/2000/svg" xmlns:xlink="http://www.w3.org/1999/xlink" fill="none" version="1.1" width="60" height="60" viewBox="0 0 60 60"><defs><clipPath id="master_svg0_3_333"><rect x="-1" y="-1" width="62" height="62" rx="0"/></clipPath><linearGradient x1="0.5" y1="0" x2="0.5" y2="1" id="master_svg1_3_20"><stop offset="0%" stop-color="#F5F7FF" stop-opacity="1"/><stop offset="100%" stop-color="#EEEFFF" stop-opacity="1"/></linearGradient><clipPath id="bgblur_master_svg2_3_339_clip_path" clipPathUnits="userSpaceOnUse"><rect x="8" y="17.86898708343506" width="30.952375411987305" height="30.952375411987305" rx="3.6312060356140137"/></clipPath><filter id="bgblur_master_svg3_3_339_filter" filterUnits="userSpaceOnUse" x="-100.93617248535156" y="-91.0671854019165" width="248.82472038269043" height="248.82472038269043" color-interpolation-filters="sRGB"><feGaussianBlur stdDeviation="18.156028747558594"/></filter><g id="bgblur_master_svg4_3_339_backdrop"><rect x="51" y="19.973722457885742" width="22.396501541137695" height="23.660274505615234" rx="3.6312060356140137" fill="#0D59C4" fill-opacity="1" transform="matrix(-0.9162202477455139,-0.400674968957901,-0.400674968957901,0.9162202477455139,105.73020326080831,22.107816935974483)"/></g><linearGradient x1="0.5" y1="0" x2="0.5" y2="1" id="master_svg5_3_13"><stop offset="0%" stop-color="#85AAFE" stop-opacity="1"/><stop offset="100%" stop-color="#85AAFE" stop-opacity="0"/></linearGradient></defs><g clip-path="url(#master_svg0_3_333)"><rect x="0" y="0" width="60" height="60" rx="0" fill="url(#master_svg1_3_20)" fill-opacity="1"/><g style="opacity:0.800000011920929;"><use xlink:href="#bgblur_master_svg4_3_339_backdrop"/><g clip-path="url(#bgblur_master_svg2_3_339_clip_path)"><use xlink:href="#bgblur_master_svg4_3_339_backdrop" filter="url(#bgblur_master_svg3_3_339_filter)"/></g><rect x="8" y="17.86898708343506" width="30.952375411987305" height="30.952375411987305" rx="3.6312060356140137" fill="url(#master_svg5_3_13)" fill-opacity="1"/><rect x="8.605201005935669" y="18.474188089370728" width="29.741973400115967" height="29.741973400115967" rx="3.0260050296783447" fill-opacity="0" stroke-opacity="1" stroke="#F8FFFF" fill="none" stroke-width="1.210402011871338"/><path d="M30.999999046325684,30.194446334912108L30.999999046325684,31.431185934912108L31.00019704632568,31.431185934912108Q31.000196046325684,31.52965733491211,31.019406046325685,31.62623693491211Q31.038617046325683,31.72281643491211,31.076301046325682,31.81379273491211Q31.113984046325683,31.90476843491211,31.168693046325686,31.986644734912108Q31.223401046325684,32.06852103491211,31.293031046325684,32.13815113491211Q31.362660046325683,32.20778083491211,31.444536046325684,32.26248883491211Q31.52641204632568,32.31719683491211,31.617389046325684,32.35488033491211Q31.70836504632568,32.39256383491211,31.804944046325684,32.411774634912106Q31.901524046325683,32.43098543491211,31.99999704632568,32.43098593491211Q32.098468046325685,32.43098543491211,32.19504804632568,32.411774634912106Q32.29162704632569,32.39256383491211,32.38260204632569,32.35488033491211Q32.473578046325684,32.31719683491211,32.55545504632568,32.26248883491211Q32.63733204632568,32.20778083491211,32.706962046325685,32.13815113491211Q32.776591046325684,32.06852103491211,32.831298046325685,31.986644734912108Q32.88600404632568,31.90476803491211,32.92369004632569,31.81379223491211Q32.96137304632568,31.72281643491211,32.98058404632569,31.62623693491211Q32.99979704632568,31.52965733491211,32.99979704632568,31.43118573491211L32.99999704632569,31.431185934912108L32.99999704632569,27.67855453491211Q32.99999504632568,27.58006313491211,32.98078104632569,27.483464224912108Q32.961566046325686,27.38686531491211,32.92387304632568,27.295871134912108Q32.88618404632568,27.20487695491211,32.831464046325685,27.12298440491211Q32.776746046325684,27.04109179491211,32.707103046325685,26.971447824912108Q32.63745804632568,26.901803914912108,32.55556604632568,26.84708505491211Q32.473674046325684,26.79236614491211,32.38268004632569,26.75467509491211Q32.29168604632568,26.71698403491211,32.195086046325684,26.69776934491211Q32.09848704632569,26.67855459491211,31.999998046325686,26.67855453491211Q31.793604046325683,26.67855453491211,31.604075046325683,26.76027053491211Q31.414548046325685,26.84198653491211,31.272860046325683,26.99206352491211L22.857140546325684,35.90607933491211L21.012851246325685,33.952587634912106Q20.876299346325684,33.80795053491211,20.694792246325683,33.72657963491211Q20.513285146325686,33.64520883491211,20.314455546325682,33.63949203491211Q20.115625346325682,33.63377473491211,19.929742146325683,33.70458173491211Q19.743859046325685,33.77538873491211,19.599222146325683,33.91194013491211Q19.578313846325685,33.93167923491211,19.558574446325682,33.952587634912106L15.272860646325684,38.49206053491211L15.273006196325683,38.49219753491211Q15.141602396325684,38.63138153491211,15.070900676325683,38.80926053491211Q15.000199076325684,38.98713753491211,15.000199016325684,39.17855153491211Q15.000199076325684,39.27702353491211,15.019409956325683,39.37360153491211Q15.038620826325683,39.47018153491211,15.076304316325684,39.56115753491211Q15.113987806325683,39.65213353491211,15.168695746325684,39.73401053491211Q15.223403696325683,39.81588653491211,15.293033716325684,39.88551753491211Q15.362663746325683,39.95514653491211,15.444539966325683,40.00985453491211Q15.526416186325683,40.06456153491211,15.617392186325684,40.10224553491211Q15.708368156325683,40.13992853491211,15.804947746325684,40.15913953491211Q15.901527337325684,40.17835053491211,15.999999046325684,40.17835153491211Q16.206351776325683,40.17835153491211,16.395842196325685,40.09665153491211Q16.585332576325683,40.01495153491211,16.726991896325682,39.86490553491211L16.727137446325685,39.86504253491211L20.285712746325682,36.09576223491211L22.130002046325686,38.04925353491211Q22.149740646325682,38.070160534912105,22.170649546325684,38.08989953491211Q22.242266146325683,38.15751253491211,22.325697946325683,38.20985553491211Q22.409129146325682,38.26219753491211,22.501168746325682,38.29725853491211Q22.593208746325683,38.33231853491211,22.690320446325686,38.34874953491211Q22.787431746325684,38.36517953491211,22.885882346325683,38.36234853491211Q22.984333046325684,38.35951753491211,23.080339446325684,38.33753253491211Q23.176345846325685,38.31554953491211,23.266219146325682,38.27525853491211Q23.356092446325682,38.23496953491211,23.436378446325683,38.17791953491211Q23.516664546325686,38.12087053491211,23.584278546325685,38.04925353491211L30.999999046325684,30.194446334912108Z" fill-rule="evenodd" fill="#FFFFFF" fill-opacity="1"/></g></g></svg>